<svg xmlns="http://www.w3.org/2000/svg" xmlns:xlink="http://www.w3.org/1999/xlink" viewBox="0 0 784 492"><defs><style>.cls-1{opacity:0.43;}.cls-2{fill:url(#Degradado_sin_nombre_234);}.cls-3{opacity:0.42;}.cls-4{fill:url(#Degradado_sin_nombre_261);}.cls-5{opacity:0.57;fill:url(#Degradado_sin_nombre_285);}.cls-6{opacity:0.7;}.cls-10,.cls-12,.cls-7,.cls-9{fill:#fff;}.cls-8,.cls-9{opacity:0.68;}.cls-10{opacity:0.72;}.cls-11{opacity:0.85;}.cls-12{opacity:0.55;}</style><linearGradient id="Degradado_sin_nombre_234" y1="246" x2="784" y2="246" gradientUnits="userSpaceOnUse"><stop offset="0" stop-color="#07ff6d"/><stop offset="0.05" stop-color="#07f773"/><stop offset="0.24" stop-color="#06d988"/><stop offset="0.41" stop-color="#05c794"/><stop offset="0.53" stop-color="#05c099"/><stop offset="0.62" stop-color="#04c794" stop-opacity="0.96"/><stop offset="0.77" stop-color="#03d988" stop-opacity="0.84"/><stop offset="0.96" stop-color="#01f874" stop-opacity="0.65"/><stop offset="1" stop-color="#00ff6f" stop-opacity="0.6"/></linearGradient><linearGradient id="Degradado_sin_nombre_261" y1="26" x2="784" y2="26" gradientUnits="userSpaceOnUse"><stop offset="0" stop-color="#00ccbf"/><stop offset="0.03" stop-color="#00c7b3"/><stop offset="0.13" stop-color="#00b78b"/><stop offset="0.24" stop-color="#00aa6b"/><stop offset="0.34" stop-color="#00a154"/><stop offset="0.44" stop-color="#009c47"/><stop offset="0.52" stop-color="#009a42"/><stop offset="0.65" stop-color="#009f4f" stop-opacity="0.94"/><stop offset="0.82" stop-color="#00ae75" stop-opacity="0.77"/><stop offset="1" stop-color="#00c3a9" stop-opacity="0.54"/></linearGradient><linearGradient id="Degradado_sin_nombre_285" x1="14" y1="271" x2="771" y2="271" gradientUnits="userSpaceOnUse"><stop offset="0" stop-color="#07b27d"/><stop offset="0.01" stop-color="#07b07e"/><stop offset="0.18" stop-color="#069c8d"/><stop offset="0.36" stop-color="#059096"/><stop offset="0.53" stop-color="#058c99"/><stop offset="0.63" stop-color="#058d97" stop-opacity="0.99"/><stop offset="0.72" stop-color="#04908f" stop-opacity="0.94"/><stop offset="0.81" stop-color="#039683" stop-opacity="0.87"/><stop offset="0.9" stop-color="#029e72" stop-opacity="0.76"/><stop offset="0.98" stop-color="#00a85c" stop-opacity="0.63"/><stop offset="1" stop-color="#00aa57" stop-opacity="0.6"/></linearGradient></defs><title>Recurso 1</title><g id="Capa_2" data-name="Capa 2"><g id="Capa_1-2" data-name="Capa 1"><g class="cls-1"><path class="cls-2" d="M770.31,0H0V478.31A13.69,13.69,0,0,0,13.69,492H770.31A13.69,13.69,0,0,0,784,478.31V0Z"/></g><g class="cls-3"><rect class="cls-4" width="784" height="52"/></g><path class="cls-5" d="M14,64H771a0,0,0,0,1,0,0V452.05A25.95,25.95,0,0,1,745.05,478H39.95A25.95,25.95,0,0,1,14,452.05V64a0,0,0,0,1,0,0Z"/><g class="cls-6"><path class="cls-7" d="M53,163,24.6,177.53v-4.22l24.09-12v-.13l-24.09-12V145L53,159.55Z"/></g><g class="cls-6"><path class="cls-7" d="M78,170v9.44H53.3V170Z"/></g><g class="cls-8"><path class="cls-7" d="M744.77,11.93l3.7,5.57c1,1.44,1.77,2.78,2.62,4.23h.16c.86-1.56,1.72-2.89,2.57-4.29l3.65-5.51h5.08l-8.83,12.53,9.1,13.39h-5.35L753.66,32c-1-1.5-1.87-2.94-2.78-4.5h-.11c-.86,1.56-1.77,2.95-2.73,4.5l-3.75,5.84h-5.2l9.22-13.23-8.79-12.69Z"/></g><circle class="cls-9" cx="668.5" cy="24.5" r="11.5"/><circle class="cls-9" cx="710.5" cy="24.5" r="11.5"/><rect class="cls-10" x="17" y="18" width="388" height="14" rx="4.79"/><g class="cls-11"><rect class="cls-12" x="23" y="80" width="263" height="7" rx="3.5"/><rect class="cls-12" x="23" y="120" width="188" height="7" rx="2.96"/><rect class="cls-12" x="24" y="132" width="321" height="7" rx="3.5"/><rect class="cls-12" x="23" y="94" width="418" height="7" rx="3.5"/><rect class="cls-12" x="23" y="108" width="68" height="7" rx="3.5"/></g></g></g></svg>