<svg xmlns="http://www.w3.org/2000/svg" xmlns:xlink="http://www.w3.org/1999/xlink" viewBox="0 0 784 492"><defs><style>.cls-1{opacity:0.5;}.cls-2{fill:url(#Degradado_sin_nombre_39);}.cls-3{fill:url(#Degradado_sin_nombre_39-2);}.cls-4{opacity:0.92;}.cls-5,.cls-6,.cls-7,.cls-8,.cls-9{fill:#fff;}.cls-6{opacity:0.76;}.cls-7{opacity:0.45;}.cls-8{opacity:0.47;}.cls-9{opacity:0.57;}.cls-10{opacity:0.37;fill:url(#Degradado_sin_nombre_335);}.cls-11,.cls-12{fill:none;stroke:#fff;stroke-miterlimit:10;}.cls-12{stroke-width:1.32px;}</style><linearGradient id="Degradado_sin_nombre_39" y1="246" x2="784" y2="246" gradientUnits="userSpaceOnUse"><stop offset="0" stop-color="#54a4ff" stop-opacity="0.5"/><stop offset="0.53" stop-color="#1ea2ff"/><stop offset="1" stop-color="#00bdff" stop-opacity="0.5"/></linearGradient><linearGradient id="Degradado_sin_nombre_39-2" x1="24" y1="242.5" x2="758" y2="242.5" xlink:href="#Degradado_sin_nombre_39"/><linearGradient id="Degradado_sin_nombre_335" x1="578.05" y1="286.28" x2="578.93" y2="141.31" gradientUnits="userSpaceOnUse"><stop offset="0" stop-color="#d4eeff"/><stop offset="0.03" stop-color="#cde8ff" stop-opacity="0.98"/><stop offset="0.39" stop-color="#7fa7ff" stop-opacity="0.82"/><stop offset="0.68" stop-color="#4678ff" stop-opacity="0.7"/><stop offset="0.89" stop-color="#225bff" stop-opacity="0.63"/><stop offset="1" stop-color="#1550ff" stop-opacity="0.6"/></linearGradient></defs><title>Recurso 2</title><g id="Capa_2" data-name="Capa 2"><g id="Capa_1-2" data-name="Capa 1"><g class="cls-1"><rect class="cls-2" width="784" height="492" rx="29.95"/></g><g class="cls-1"><path class="cls-3" d="M709.83,61,279,62c-11.58-.8-5.2-44-32.21-44H47.72A23.72,23.72,0,0,0,24,41.72V431.33A35.67,35.67,0,0,0,59.67,467H723.33A34.67,34.67,0,0,0,758,432.33V110.17C758,64,736.44,61,709.83,61Z"/></g><g class="cls-4"><path class="cls-5" d="M231,33.16l2.83,4.26c.73,1.11,1.35,2.13,2,3.24H236c.65-1.19,1.31-2.22,2-3.28l2.78-4.22h3.9l-6.77,9.59,7,10.25h-4.1l-2.91-4.47c-.78-1.15-1.43-2.25-2.13-3.44h-.08c-.66,1.19-1.35,2.25-2.09,3.44L230.64,53h-4l7.05-10.13L227,33.16Z"/></g><rect class="cls-6" x="44" y="36" width="150" height="13" rx="5.46"/><rect class="cls-7" x="66" y="129" width="325" height="15" rx="7.5"/><rect class="cls-8" x="176" y="152" width="214" height="15" rx="6.09"/><rect class="cls-9" x="65" y="175" width="325" height="15" rx="7.5"/><rect class="cls-10" x="444" y="121" width="269" height="182" rx="24.95"/><circle class="cls-5" cx="229" cy="309" r="15"/><circle class="cls-11" cx="229.5" cy="309.5" r="34"/><circle class="cls-12" cx="229.5" cy="309.5" r="45"/></g></g></svg>