<svg xmlns="http://www.w3.org/2000/svg" xmlns:xlink="http://www.w3.org/1999/xlink" viewBox="0 0 401 403"><defs><style>.cls-1{fill:none;}.cls-2{fill:url(#Degradado_sin_nombre_82);}.cls-3{fill:url(#Degradado_sin_nombre_72);}.cls-4{fill:url(#Degradado_sin_nombre_52);}</style><linearGradient id="Degradado_sin_nombre_82" x1="403.49" y1="-24.69" x2="189.03" y2="214.28" gradientUnits="userSpaceOnUse"><stop offset="0" stop-color="#004281"/><stop offset="1" stop-color="#128bd0"/></linearGradient><linearGradient id="Degradado_sin_nombre_72" x1="-11.57" y1="399.92" x2="225.88" y2="177.79" gradientUnits="userSpaceOnUse"><stop offset="0" stop-color="#62d6ee"/><stop offset="1" stop-color="#007bd1"/></linearGradient><linearGradient id="Degradado_sin_nombre_52" x1="277.75" y1="257.46" x2="202.68" y2="320.27" gradientUnits="userSpaceOnUse"><stop offset="0" stop-color="#1883cb"/><stop offset="1" stop-color="#2195d8"/></linearGradient></defs><title>Recurso 4</title><g id="Capa_2" data-name="Capa 2"><g id="Capa_1-2" data-name="Capa 1"><path class="cls-1" d="M246.52,194.16c-1.75-11.74-6.29-23.57-15.29-31.32C220.72,153.79,205.91,151.72,192,152c-13.43.26-19.17.49-39.49.45l85.63,85.13C246.73,225.15,248.75,209.09,246.52,194.16Z"/><path class="cls-1" d="M199.78,100.82a105.61,105.61,0,0,1,67.09,25.12c11.63,10,20.64,22,25.65,36.67,10.1,29.49,6.18,62.66-6.67,91.06,15.91,0,43.25-.08,65.15-.12V50H49.5l51.39,51.1C133.85,100.73,167,100.25,199.78,100.82Z"/><path class="cls-1" d="M304.5,303.5,351,349.73V303.5Z"/><path class="cls-1" d="M49,50l-.5,38,.5,13.42c17.21,0,34.53-.13,51.89-.32L49.5,50Z"/><path class="cls-2" d="M351,50V253.55c-21.9,0-49.24.07-65.15.12,12.85-28.4,16.77-61.57,6.67-91.06-5-14.65-14-26.68-25.65-36.67a105.61,105.61,0,0,0-67.09-25.12c-32.82-.57-65.93-.09-98.89.28l51.66,51.34c20.32,0,26.06-.19,39.49-.45,13.87-.27,28.68,1.8,39.19,10.85,9,7.75,13.54,19.58,15.29,31.32,2.23,14.93.21,31-8.34,43.41L304.5,303.5H351v46.23l44.08,43.82a25.82,25.82,0,0,0,5.92-16.5V26A26,26,0,0,0,375.05,0H26A25.87,25.87,0,0,0,7.23,8L49.5,50Z"/><path class="cls-1" d="M198.5,303.5c0-16.39,0-31.79,0-48.18,14,.18,30.81-5.07,39.49-17.52l.15-.23-85.63-85.13h-2Q150,228,149.5,303.5h-51v-151H50l.5,24.5L50,353H351v-3.27L304.5,303.5Z"/><path class="cls-3" d="M351,349.73V353H50l.5-176L50,152.5H98.5v151h51q.5-75.52,1-151.06h2L100.89,101.1c-17.36.19-34.68.35-51.89.32L48.5,88,49,50h.5L7.23,8A25.86,25.86,0,0,0,0,26v351.1A26,26,0,0,0,26,403h349.1a25.89,25.89,0,0,0,20-9.45Z"/><path class="cls-4" d="M198.54,255.32c0,16.39,0,31.79,0,48.18h106l-66.32-65.93-.15.23C229.35,250.25,212.5,255.5,198.54,255.32Z"/></g></g></svg>