<svg xmlns="http://www.w3.org/2000/svg" xmlns:xlink="http://www.w3.org/1999/xlink" viewBox="0 0 784 492"><defs><style>.cls-1{fill:url(#Degradado_sin_nombre_59);}.cls-2{fill:url(#Degradado_sin_nombre_99);}.cls-3{opacity:0.92;}.cls-4,.cls-5,.cls-6,.cls-7,.cls-8{fill:#fff;}.cls-5{opacity:0.76;}.cls-6{opacity:0.45;}.cls-7{opacity:0.47;}.cls-8{opacity:0.57;}.cls-9{fill:#00a8e2;}.cls-10,.cls-11{fill:none;stroke:#fff;stroke-miterlimit:10;}.cls-11{stroke-width:1.32px;}</style><linearGradient id="Degradado_sin_nombre_59" y1="246" x2="784" y2="246" gradientUnits="userSpaceOnUse"><stop offset="0" stop-color="#31a1cf"/><stop offset="0.53" stop-color="#007cbf"/><stop offset="1" stop-color="#2fa3d1"/></linearGradient><linearGradient id="Degradado_sin_nombre_99" x1="24" y1="242.5" x2="758" y2="242.5" gradientUnits="userSpaceOnUse"><stop offset="0" stop-color="#a2d3ff"/><stop offset="0.31" stop-color="#68caff"/><stop offset="0.51" stop-color="#3fc4ff"/><stop offset="0.59" stop-color="#47c5ff"/><stop offset="0.71" stop-color="#5cc9ff"/><stop offset="0.85" stop-color="#7eceff"/><stop offset="1" stop-color="#aad5ff"/></linearGradient></defs><title>Recurso 2</title><g id="Capa_2" data-name="Capa 2"><g id="Capa_1-2" data-name="Capa 1"><rect class="cls-1" width="784" height="492" rx="29.95"/><path class="cls-2" d="M709.83,61,279,62c-11.58-.8-5.2-44-32.21-44H47.72A23.72,23.72,0,0,0,24,41.72V431.33A35.67,35.67,0,0,0,59.67,467H723.33A34.67,34.67,0,0,0,758,432.33V110.17C758,64,736.44,61,709.83,61Z"/><g class="cls-3"><path class="cls-4" d="M231,33.16l2.83,4.26c.73,1.11,1.35,2.13,2,3.24H236c.65-1.19,1.31-2.22,2-3.28l2.78-4.22h3.9l-6.77,9.59,7,10.25h-4.1l-2.91-4.47c-.78-1.15-1.43-2.25-2.13-3.44h-.08c-.66,1.19-1.35,2.25-2.09,3.44L230.64,53h-4l7.05-10.13L227,33.16Z"/></g><rect class="cls-5" x="44" y="36" width="150" height="13" rx="5.46"/><rect class="cls-6" x="66" y="129" width="325" height="15" rx="7.5"/><rect class="cls-7" x="176" y="152" width="214" height="15" rx="6.09"/><rect class="cls-8" x="65" y="175" width="325" height="15" rx="7.5"/><rect class="cls-9" x="444" y="121" width="269" height="182" rx="24.95"/><circle class="cls-4" cx="229" cy="309" r="15"/><circle class="cls-10" cx="229.5" cy="309.5" r="34"/><circle class="cls-11" cx="229.5" cy="309.5" r="45"/></g></g></svg>