<svg xmlns="http://www.w3.org/2000/svg" xmlns:xlink="http://www.w3.org/1999/xlink" viewBox="0 0 784 492"><defs><style>.cls-1{fill:url(#Degradado_sin_nombre_108);}.cls-2{opacity:0.71;}.cls-3{fill:url(#Degradado_sin_nombre_261);}.cls-4{opacity:0.8;fill:url(#Degradado_sin_nombre_122);}.cls-5{opacity:0.7;}.cls-11,.cls-6,.cls-8,.cls-9{fill:#fff;}.cls-7,.cls-8{opacity:0.68;}.cls-9{opacity:0.72;}.cls-10{opacity:0.85;}.cls-11{opacity:0.55;}</style><linearGradient id="Degradado_sin_nombre_108" y1="246" x2="784" y2="246" gradientUnits="userSpaceOnUse"><stop offset="0" stop-color="#07c6ab"/><stop offset="0.26" stop-color="#06c2a0"/><stop offset="0.53" stop-color="#05c099"/><stop offset="0.84" stop-color="#0bc3a2"/><stop offset="1" stop-color="#10c5a9"/></linearGradient><linearGradient id="Degradado_sin_nombre_261" y1="26" x2="784" y2="26" gradientUnits="userSpaceOnUse"><stop offset="0" stop-color="#00ccbf"/><stop offset="0.03" stop-color="#00c7b3"/><stop offset="0.13" stop-color="#00b78b"/><stop offset="0.24" stop-color="#00aa6b"/><stop offset="0.34" stop-color="#00a154"/><stop offset="0.44" stop-color="#009c47"/><stop offset="0.52" stop-color="#009a42"/><stop offset="0.65" stop-color="#009f4f" stop-opacity="0.94"/><stop offset="0.82" stop-color="#00ae75" stop-opacity="0.77"/><stop offset="1" stop-color="#00c3a9" stop-opacity="0.54"/></linearGradient><linearGradient id="Degradado_sin_nombre_122" x1="14" y1="271" x2="771" y2="271" gradientUnits="userSpaceOnUse"><stop offset="0" stop-color="#07997d"/><stop offset="0.1" stop-color="#058669"/><stop offset="0.24" stop-color="#027355"/><stop offset="0.39" stop-color="#016749"/><stop offset="0.53" stop-color="#006345"/><stop offset="0.69" stop-color="#02694b" stop-opacity="0.98"/><stop offset="0.85" stop-color="#077c5f" stop-opacity="0.91"/><stop offset="1" stop-color="#0f9c80" stop-opacity="0.8"/><stop offset="1" stop-color="#0f9d81" stop-opacity="0.8"/></linearGradient></defs><title>Recurso 1</title><g id="Capa_2" data-name="Capa 2"><g id="Capa_1-2" data-name="Capa 1"><path class="cls-1" d="M770.31,0H0V478.31A13.69,13.69,0,0,0,13.69,492H770.31A13.69,13.69,0,0,0,784,478.31V0Z"/><g class="cls-2"><rect class="cls-3" width="784" height="52"/></g><path class="cls-4" d="M14,64H771a0,0,0,0,1,0,0V452.05A25.95,25.95,0,0,1,745.05,478H39.95A25.95,25.95,0,0,1,14,452.05V64a0,0,0,0,1,0,0Z"/><g class="cls-5"><path class="cls-6" d="M53,163,24.6,177.53v-4.22l24.09-12v-.13l-24.09-12V145L53,159.55Z"/></g><g class="cls-5"><path class="cls-6" d="M78,170v9.44H53.3V170Z"/></g><g class="cls-7"><path class="cls-6" d="M744.77,11.93l3.7,5.57c1,1.44,1.77,2.78,2.62,4.23h.16c.86-1.56,1.72-2.89,2.57-4.29l3.65-5.51h5.08l-8.83,12.53,9.1,13.39h-5.35L753.66,32c-1-1.5-1.87-2.94-2.78-4.5h-.11c-.86,1.56-1.77,2.95-2.73,4.5l-3.75,5.84h-5.2l9.22-13.23-8.79-12.69Z"/></g><circle class="cls-8" cx="668.5" cy="24.5" r="11.5"/><circle class="cls-8" cx="710.5" cy="24.5" r="11.5"/><rect class="cls-9" x="17" y="18" width="388" height="14" rx="4.79"/><g class="cls-10"><rect class="cls-11" x="23" y="80" width="263" height="7" rx="3.5"/><rect class="cls-11" x="23" y="120" width="188" height="7" rx="2.96"/><rect class="cls-11" x="24" y="132" width="321" height="7" rx="3.5"/><rect class="cls-11" x="23" y="94" width="418" height="7" rx="3.5"/><rect class="cls-11" x="23" y="108" width="68" height="7" rx="3.5"/></g></g></g></svg>